<?xml version="1.0" encoding="utf-8"?>
<!-- Generator: Adobe Illustrator 25.4.1, SVG Export Plug-In . SVG Version: 6.00 Build 0)  -->
<svg version="1.1" xmlns="http://www.w3.org/2000/svg" xmlns:xlink="http://www.w3.org/1999/xlink" x="0px" y="0px"
	 viewBox="0 0 800 600" style="enable-background:new 0 0 800 600;" xml:space="preserve">
<style type="text/css">
	.st0{fill:url(#SVGID_1_);stroke:#000000;stroke-width:3;stroke-miterlimit:10;}
	.st1{fill:none;stroke:#000000;stroke-width:3;stroke-linecap:round;stroke-linejoin:round;stroke-miterlimit:10;}
	
		.st2{fill:url(#SVGID_00000158721298196772024120000017803774181318924197_);stroke:#000000;stroke-linecap:round;stroke-linejoin:round;stroke-miterlimit:10;}
	.st3{fill:url(#SVGID_00000160185945922713474370000004658124659888889990_);stroke:#000000;stroke-width:3;stroke-miterlimit:10;}
	.st4{fill:url(#SVGID_00000072238028851869000630000012043212315957660056_);stroke:#000000;stroke-miterlimit:10;}
	
		.st5{fill:url(#SVGID_00000137828764316956846200000007414684089656697519_);stroke:#432918;stroke-width:4;stroke-linecap:round;stroke-linejoin:round;stroke-miterlimit:10;}
	.st6{fill:url(#SVGID_00000173148778854312202100000014408238271048032655_);stroke:#000000;stroke-miterlimit:10;}
	
		.st7{fill:url(#SVGID_00000149378958219249789850000010084837516484207798_);stroke:#000000;stroke-linecap:round;stroke-linejoin:round;stroke-miterlimit:10;}
	
		.st8{fill:url(#SVGID_00000096025002702951907130000011837056241014021277_);stroke:#000000;stroke-width:0.25;stroke-miterlimit:10;}
	
		.st9{fill:url(#SVGID_00000139272947349651086450000015864276723349000075_);stroke:#000000;stroke-width:0.25;stroke-miterlimit:10;}
	.st10{fill:none;stroke:#000000;stroke-width:2;stroke-miterlimit:10;}
	.st11{fill:url(#SVGID_00000018915373770794335180000004736447201799423925_);stroke:#000000;stroke-width:2;stroke-miterlimit:10;}
	
		.st12{fill:url(#SVGID_00000061436941929584165530000001132544696423018383_);stroke:#000000;stroke-width:0.25;stroke-miterlimit:10;}
	
		.st13{fill:url(#SVGID_00000030478316848884657120000003620158785609408929_);stroke:#000000;stroke-width:0.25;stroke-miterlimit:10;}
	
		.st14{fill:url(#SVGID_00000078755169578661408470000017772844010687353765_);stroke:#000000;stroke-width:0.25;stroke-miterlimit:10;}
	
		.st15{fill:url(#SVGID_00000141457682029553992450000005338539162013865908_);stroke:#000000;stroke-width:0.25;stroke-miterlimit:10;}
	.st16{fill:url(#SVGID_00000179618774144952247610000012340330167731945150_);stroke:#000000;stroke-width:3;stroke-miterlimit:10;}
	
		.st17{fill:url(#SVGID_00000043435698013459390400000000800334232360708541_);stroke:#000000;stroke-width:0.25;stroke-miterlimit:10;}
	.st18{fill:none;stroke:#000000;stroke-miterlimit:10;}
	.st19{fill:none;stroke:#000000;stroke-width:3;stroke-miterlimit:10;}
	.st20{fill:#1D71B8;stroke:#000000;stroke-width:3;stroke-miterlimit:10;}
	.st21{fill:none;stroke:#000000;stroke-width:0.25;stroke-miterlimit:10;}
	
		.st22{fill:url(#SVGID_00000058580907068664295180000006008497189304544915_);stroke:#000000;stroke-width:0.25;stroke-miterlimit:10;}
	
		.st23{fill:url(#SVGID_00000132046744255974354600000018444135057909134245_);stroke:#000000;stroke-width:0.25;stroke-miterlimit:10;}
	
		.st24{fill:url(#SVGID_00000039845672560994070650000013334137089097471892_);stroke:#000000;stroke-width:0.25;stroke-miterlimit:10;}
	
		.st25{fill:url(#SVGID_00000079446420935132116340000012217224724852585127_);stroke:#000000;stroke-width:0.25;stroke-miterlimit:10;}
	
		.st26{fill:url(#SVGID_00000145766184833768455000000015060666764705399701_);stroke:#000000;stroke-width:0.25;stroke-miterlimit:10;}
	
		.st27{fill:url(#SVGID_00000020389068134800366010000013909416415132863399_);stroke:#000000;stroke-width:0.25;stroke-miterlimit:10;}
	.st28{fill:#B65817;stroke:#000000;stroke-miterlimit:10;}
	.st29{font-family:'PermanentMarker-Regular';}
	.st30{font-size:15.6245px;}
	.st31{fill:#CED83C;stroke:#000000;stroke-miterlimit:10;}
	.st32{font-size:10.3789px;}
	.st33{display:none;}
</style>
<g id="Головне_деко">
	<g id="Заднє_деко">
		<linearGradient id="SVGID_1_" gradientUnits="userSpaceOnUse" x1="164.9815" y1="445.7929" x2="454.1563" y2="445.7929">
			<stop  offset="2.492013e-07" style="stop-color:#683C11"/>
			<stop  offset="0.2357" style="stop-color:#704924"/>
			<stop  offset="0.5678" style="stop-color:#775B3F"/>
			<stop  offset="0.8344" style="stop-color:#7A6651"/>
			<stop  offset="1" style="stop-color:#7B6A58"/>
		</linearGradient>
		<path class="st0" d="M448.8,327.5c2.6,5.2,6.3,14.7,5.1,26.3c-1.7,15.3-10.3,26.1-19.3,33.9c-51.3,43.7-57.2,22.2-76.6,55.7
			c-19.3,29.1-45.7,75.8-78.1,103.1c-32.4,27.3-73.5,14.8-73.5,14.8c-13.8-6.4-27.5-12.7-41.3-19.1"/>
		<path class="st1" d="M243.9,394.3c-9.2-12.1-18.5-24.3-27.7-36.4"/>
		
			<linearGradient id="SVGID_00000013195401433383089590000012018939344563581574_" gradientUnits="userSpaceOnUse" x1="416.7368" y1="269.6343" x2="434.2687" y2="269.6343">
			<stop  offset="2.492013e-07" style="stop-color:#683C11"/>
			<stop  offset="0.232" style="stop-color:#6B3D11"/>
			<stop  offset="0.405" style="stop-color:#744312"/>
			<stop  offset="0.5589" style="stop-color:#834D13"/>
			<stop  offset="0.7017" style="stop-color:#995C14"/>
			<stop  offset="0.8369" style="stop-color:#B87113"/>
			<stop  offset="0.9646" style="stop-color:#E18F0A"/>
			<stop  offset="1" style="stop-color:#EF9904"/>
		</linearGradient>
		
			<path style="fill:url(#SVGID_00000013195401433383089590000012018939344563581574_);stroke:#000000;stroke-linecap:round;stroke-linejoin:round;stroke-miterlimit:10;" d="
			M434.3,252.2c-1.1,4.1,0.5,6-1.9,12.5c-2.4,6.5-0.8,14.9-1.1,22.3l-0.2-0.5l-13.3-20.9l-0.9-0.3l15.3-10.7"/>
	</g>
	
		<linearGradient id="SVGID_00000152963194181934632190000014732828478930113937_" gradientUnits="userSpaceOnUse" x1="65.1052" y1="376.0638" x2="449.9435" y2="376.0638">
		<stop  offset="7.476040e-07" style="stop-color:#FFDA67"/>
		<stop  offset="1" style="stop-color:#FBBD2A"/>
	</linearGradient>
	
		<path style="fill:url(#SVGID_00000152963194181934632190000014732828478930113937_);stroke:#000000;stroke-width:3;stroke-miterlimit:10;" d="
		M416.9,266.4c36.8,48.6,35.6,74.1,30.2,85.9c-14.1,30.8-49.9,27.4-94.7,68.7c-42.6,54.9-15.6,37-69.4,99.1
		c-66.6,75.8-133.3,22.6-180.2-39.5c-49.5-65.6-55.5-140.5,14-186.5c22.8-13.3,37.1-15.7,45.6-17c7.5-1.2,10.1-0.9,17-2
		c0,0,23.5-1,48.7-10c49.5-17.7,60.7-65,94-70c15.5-2.3,39.2,3.6,72.9,43.7"/>
	
		<linearGradient id="SVGID_00000165206922563941528600000001591254225251424664_" gradientUnits="userSpaceOnUse" x1="273.853" y1="389.668" x2="376.2378" y2="389.668">
		<stop  offset="0" style="stop-color:#FFFFFF"/>
		<stop  offset="1" style="stop-color:#000000"/>
	</linearGradient>
	<path style="fill:url(#SVGID_00000165206922563941528600000001591254225251424664_);stroke:#000000;stroke-miterlimit:10;" d="
		M368,327.2c1.5,1.7,10.1,12.1,7.9,25.8c-1.1,6.8-4.4,11.8-6.6,14.6c-5,6.1-10.4,7.7-16.4,10.9c-10.7,5.7-17,12.9-25,22.3
		c-11.2,13.1-8.5,16.4-19.9,30.6c-8.8,10.9-21.6,22.8-25.3,20.4c-2.5-1.7,2.3-9.2,1.8-21.7c-0.6-13-6.4-18.3-9.2-27.8
		c-2.6-9-2.9-23.1,9.7-44.4"/>
	
		<linearGradient id="SVGID_00000117668528821488474540000000823498487715099071_" gradientUnits="userSpaceOnUse" x1="267.5609" y1="317.6785" x2="367.2459" y2="317.6785">
		<stop  offset="6.230033e-07" style="stop-color:#FDC843"/>
		<stop  offset="2.983128e-02" style="stop-color:#FDC741"/>
		<stop  offset="0.2844" style="stop-color:#FCC338"/>
		<stop  offset="0.992" style="stop-color:#FCC236"/>
	</linearGradient>
	
		<path style="fill:url(#SVGID_00000117668528821488474540000000823498487715099071_);stroke:#432918;stroke-width:4;stroke-linecap:round;stroke-linejoin:round;stroke-miterlimit:10;" d="
		M365,302.6c5.3,17,0.9,36.6-11.4,49.5c-12.8,13.4-33.2,18.6-50.9,13.1c-16.5-5.2-30.1-19.2-34-36.1c-4.1-17.9,2.9-37.7,16.8-49.6
		c13.8-11.8,33.9-14.5,50.7-7.9c2.5,1,5,2.2,7.3,3.6"/>
	
		<linearGradient id="SVGID_00000121959096656868152450000016629351045337210024_" gradientUnits="userSpaceOnUse" x1="471.0646" y1="174.4091" x2="650.5509" y2="190.3115" gradientTransform="matrix(1.1584 -0.1149 -0.1149 1.0834 -88.4387 64.1778)">
		<stop  offset="0" style="stop-color:#FED37D"/>
		<stop  offset="1" style="stop-color:#936037"/>
	</linearGradient>
	
		<polygon style="fill:url(#SVGID_00000121959096656868152450000016629351045337210024_);stroke:#000000;stroke-miterlimit:10;" points="
		632.9,107.6 349.6,313.1 330.4,284 618.9,83.3 	"/>
	
		<linearGradient id="SVGID_00000037654116416775309910000000414058202838831534_" gradientUnits="userSpaceOnUse" x1="297.4407" y1="328.6604" x2="363.8539" y2="288.6195">
		<stop  offset="2.492013e-07" style="stop-color:#683C11"/>
		<stop  offset="0.2357" style="stop-color:#704924"/>
		<stop  offset="0.5678" style="stop-color:#775B3F"/>
		<stop  offset="0.8344" style="stop-color:#7A6651"/>
		<stop  offset="1" style="stop-color:#7B6A58"/>
	</linearGradient>
	
		<circle style="fill:url(#SVGID_00000037654116416775309910000000414058202838831534_);stroke:#000000;stroke-linecap:round;stroke-linejoin:round;stroke-miterlimit:10;" cx="315.5" cy="317.8" r="36.9"/>
	
		<linearGradient id="SVGID_00000086677247867377072000000012337298093583078057_" gradientUnits="userSpaceOnUse" x1="683.1463" y1="97.4335" x2="698.2565" y2="97.4335">
		<stop  offset="3.881790e-07" style="stop-color:#FFFFFF"/>
		<stop  offset="0.1547" style="stop-color:#EEEBE9"/>
		<stop  offset="0.462" style="stop-color:#C4BBB3"/>
		<stop  offset="0.889" style="stop-color:#897969"/>
		<stop  offset="1" style="stop-color:#7B6A58"/>
	</linearGradient>
	
		<path style="fill:url(#SVGID_00000086677247867377072000000012337298093583078057_);stroke:#000000;stroke-width:0.25;stroke-miterlimit:10;" d="
		M689.9,91.3c2.9-0.1,5.7,1.2,7.2,3.2c1.3,1.7,1.5,3.7,0.8,5.1c-1.7,3.5-8.3,5.4-12.1,2.8c-2.9-2-3.8-6.3-0.9-9.6"/>
	
		<linearGradient id="SVGID_00000003814332355050423210000012757858697577939113_" gradientUnits="userSpaceOnUse" x1="660.2316" y1="111.7729" x2="675.3475" y2="111.7729">
		<stop  offset="1.389777e-07" style="stop-color:#FFFFFF"/>
		<stop  offset="0.1547" style="stop-color:#EEEBE9"/>
		<stop  offset="0.462" style="stop-color:#C4BBB3"/>
		<stop  offset="0.889" style="stop-color:#897969"/>
		<stop  offset="1" style="stop-color:#7B6A58"/>
	</linearGradient>
	
		<path style="fill:url(#SVGID_00000003814332355050423210000012757858697577939113_);stroke:#000000;stroke-width:0.25;stroke-miterlimit:10;" d="
		M665.6,104.4c2.8-0.9,5.8-0.2,7.8,1.9c1.6,1.7,2.3,4,1.9,6c-0.8,4.7-6.8,8.8-11.1,6.8c-3.3-1.6-5.1-6.6-3.1-11.4"/>
	<circle class="st10" cx="216" cy="372.8" r="1.6"/>
	
		<linearGradient id="SVGID_00000061461344261615361920000013883320660372986788_" gradientUnits="userSpaceOnUse" x1="194.0213" y1="379.4655" x2="267.8936" y2="379.4655">
		<stop  offset="2.492013e-07" style="stop-color:#683C11"/>
		<stop  offset="1.548738e-02" style="stop-color:#714111"/>
		<stop  offset="7.496964e-02" style="stop-color:#905412"/>
		<stop  offset="0.1424" style="stop-color:#AC650F"/>
		<stop  offset="0.2185" style="stop-color:#C57509"/>
		<stop  offset="0.3074" style="stop-color:#D98200"/>
		<stop  offset="0.4174" style="stop-color:#E88B00"/>
		<stop  offset="0.5717" style="stop-color:#F19100"/>
		<stop  offset="1" style="stop-color:#F39200"/>
	</linearGradient>
	
		<path style="fill:url(#SVGID_00000061461344261615361920000013883320660372986788_);stroke:#000000;stroke-width:2;stroke-miterlimit:10;" d="
		M213.4,330.4c11.6,23,14.6,46,54.5,81.5c0,4.3-3.1,1.9-8.7,16.7c-5.1-2.9-12.5-7.4-20.9-13.6c-12.1-8.9-19-13.9-24.9-22.5
		c-3.5-5.1-9.4-15.4-10.7-31.5c-2.9-8.9-5.8-17.8-8.8-26.7C194,334.4,213,329.3,213.4,330.4z"/>
	
		<linearGradient id="SVGID_00000142137192097685751770000004588550951568488870_" gradientUnits="userSpaceOnUse" x1="709.801" y1="86.5048" x2="725.0851" y2="86.5048">
		<stop  offset="3.881790e-07" style="stop-color:#FFFFFF"/>
		<stop  offset="0.1547" style="stop-color:#EEEBE9"/>
		<stop  offset="0.462" style="stop-color:#C4BBB3"/>
		<stop  offset="0.889" style="stop-color:#897969"/>
		<stop  offset="1" style="stop-color:#7B6A58"/>
	</linearGradient>
	
		<path style="fill:url(#SVGID_00000142137192097685751770000004588550951568488870_);stroke:#000000;stroke-width:0.25;stroke-miterlimit:10;" d="
		M716.9,78.9c2.9-0.2,5.7,1.1,7.1,3.6c1.2,2,1.3,4.4,0.5,6.3c-1.9,4.3-8.6,7.1-12.3,4.1c-2.8-2.3-3.5-7.6-0.4-11.8"/>
	
		<linearGradient id="SVGID_00000009584565834622413110000012787219591188122802_" gradientUnits="userSpaceOnUse" x1="618.95" y1="63.1489" x2="634.187" y2="63.1489">
		<stop  offset="3.881790e-07" style="stop-color:#FFFFFF"/>
		<stop  offset="0.1547" style="stop-color:#EEEBE9"/>
		<stop  offset="0.462" style="stop-color:#C4BBB3"/>
		<stop  offset="0.889" style="stop-color:#897969"/>
		<stop  offset="1" style="stop-color:#7B6A58"/>
	</linearGradient>
	
		<path style="fill:url(#SVGID_00000009584565834622413110000012787219591188122802_);stroke:#000000;stroke-width:0.25;stroke-miterlimit:10;" d="
		M627.5,70.7c-2.9,0.4-5.8-0.8-7.3-3.2c-1.3-1.9-1.5-4.4-0.9-6.2c1.6-4.4,8.2-7.5,12.1-4.8c2.9,2.1,3.9,7.4,1.1,11.7"/>
	
		<linearGradient id="SVGID_00000165224982538941981980000002724282890039938204_" gradientUnits="userSpaceOnUse" x1="642.7872" y1="47.8624" x2="658.0242" y2="47.8624">
		<stop  offset="3.881790e-07" style="stop-color:#FFFFFF"/>
		<stop  offset="0.1547" style="stop-color:#EEEBE9"/>
		<stop  offset="0.462" style="stop-color:#C4BBB3"/>
		<stop  offset="0.889" style="stop-color:#897969"/>
		<stop  offset="1" style="stop-color:#7B6A58"/>
	</linearGradient>
	
		<path style="fill:url(#SVGID_00000165224982538941981980000002724282890039938204_);stroke:#000000;stroke-width:0.25;stroke-miterlimit:10;" d="
		M651.3,55.4c-2.9,0.4-5.8-0.8-7.3-3.2c-1.3-1.9-1.5-4.4-0.9-6.2c1.6-4.4,8.2-7.5,12.1-4.8c2.9,2.1,3.9,7.4,1.1,11.7"/>
	
		<linearGradient id="SVGID_00000123437056133669550540000008494884394210179248_" gradientUnits="userSpaceOnUse" x1="667.7291" y1="32.5759" x2="682.9659" y2="32.5759">
		<stop  offset="3.881790e-07" style="stop-color:#FFFFFF"/>
		<stop  offset="0.1547" style="stop-color:#EEEBE9"/>
		<stop  offset="0.462" style="stop-color:#C4BBB3"/>
		<stop  offset="0.889" style="stop-color:#897969"/>
		<stop  offset="1" style="stop-color:#7B6A58"/>
	</linearGradient>
	
		<path style="fill:url(#SVGID_00000123437056133669550540000008494884394210179248_);stroke:#000000;stroke-width:0.25;stroke-miterlimit:10;" d="
		M676.3,40.1c-2.9,0.4-5.8-0.8-7.3-3.2c-1.3-1.9-1.5-4.4-0.9-6.2c1.6-4.4,8.2-7.5,12.1-4.8c2.9,2.1,3.9,7.4,1.1,11.7"/>
	<circle class="st10" cx="220.5" cy="379.1" r="1.6"/>
	<circle class="st10" cx="225.9" cy="385.7" r="1.6"/>
	<circle class="st10" cx="212.3" cy="362.6" r="1.6"/>
	<circle class="st10" cx="231.6" cy="392" r="1.6"/>
	
		<linearGradient id="SVGID_00000065779389264442892830000006143759025382039718_" gradientUnits="userSpaceOnUse" x1="613.0851" y1="69" x2="727.1277" y2="69">
		<stop  offset="0" style="stop-color:#936037"/>
		<stop  offset="2.559543e-03" style="stop-color:#936037"/>
		<stop  offset="0.467" style="stop-color:#C89858"/>
		<stop  offset="0.8132" style="stop-color:#EFC272"/>
		<stop  offset="1" style="stop-color:#FED37D"/>
	</linearGradient>
	
		<path style="fill:url(#SVGID_00000065779389264442892830000006143759025382039718_);stroke:#000000;stroke-width:3;stroke-miterlimit:10;" d="
		M619.3,84.8l13.6,24.2l-0.9,0.6c2.2-0.8,5.8-1.8,10.4-1.7c5.1,0.1,9,1.7,11.2,2.7c24.5-12.9,49-25.9,73.5-38.8l-1.2,0.6
		c-0.8-2.9-1.6-6.7-1.8-11.2c-0.2-5.1,0.3-9.4,1-12.6c-1.6-0.5-5.3-1.9-8.5-5.4c-3-3.3-4-6.8-4.4-8.5c-2-0.1-5.4-0.4-9.2-2
		c-3.8-1.7-6.4-4-7.8-5.4c-24.3,15.9-48.6,31.8-72.9,47.7c-0.1,1.5-0.5,4.1-2,6.8c-2.3,4.1-5.7,6.1-7.1,6.8"/>
	<circle class="st10" cx="235" cy="396.8" r="1.6"/>
	
		<linearGradient id="SVGID_00000172403156943686613140000007429826359292779932_" gradientUnits="userSpaceOnUse" x1="619.2352" y1="92.2243" x2="632.8976" y2="105.7017" gradientTransform="matrix(1.208 -0.187 -0.187 0.992 -113.315 116.6939)">
		<stop  offset="3.881790e-07" style="stop-color:#7D4E24"/>
		<stop  offset="0.4601" style="stop-color:#7C4E24"/>
		<stop  offset="0.6259" style="stop-color:#784B24"/>
		<stop  offset="0.744" style="stop-color:#704623"/>
		<stop  offset="0.8395" style="stop-color:#653F21"/>
		<stop  offset="0.9204" style="stop-color:#57371F"/>
		<stop  offset="0.9917" style="stop-color:#452B19"/>
		<stop  offset="1" style="stop-color:#432918"/>
	</linearGradient>
	
		<polygon style="fill:url(#SVGID_00000172403156943686613140000007429826359292779932_);stroke:#000000;stroke-width:0.25;stroke-miterlimit:10;" points="
		632.6,107.8 628.2,110.4 614.2,86.2 618.7,83.6 	"/>
	<line class="st18" x1="231.6" y1="390.4" x2="628.7" y2="102.2"/>
	<path class="st19" d="M271.5,225.6"/>
	<path class="st19" d="M193,333.7"/>
	<path class="st20" d="M343.9,274.7c89.7-62.1,179.5-124.1,269.2-186.2"/>
	<path class="st19" d="M342.3,275.8c0.5-0.4,1-0.7,1.5-1.1"/>
	<path class="st19" d="M330.4,284c2.8-1.9,5.3-3.7,11.9-8.2"/>
	<path class="st19" d="M632,109.7C539,176.9,446.1,244.1,353.2,311.4"/>
	<path class="st19" d="M662.6,107.9"/>
	<path class="st19" d="M686.6,94.1"/>
	<line class="st18" x1="212.3" y1="362.6" x2="638.7" y2="75"/>
	<line class="st18" x1="216.1" y1="372.8" x2="662.7" y2="60.5"/>
	<path class="st21" d="M235.8,396.3C367.9,300.2,500.1,204,632.2,107.9c8-4.7,15.9-9.4,23.9-14.1"/>
	<path class="st18" d="M684.1,79c-7.7,2.4-15.9,5.2-24.5,8.7c-11.5,4.6-21.7,9.6-30.8,14.5"/>
	<path class="st18" d="M711.9,65.7c-2.6,0.6-6.5,1.4-11,2.7c-3.4,0.9-16,4.4-35,13c-12.3,5.6-15.3,7.8-29.6,13.8
		c-5.2,2.2-9.1,3.7-9.4,3.8c-12.1,4.7-122.8,83.5-398.5,286.8"/>
	<path class="st18" d="M687.9,40.4c-3.4,3.6-8.2,8.5-14,14.1c-7.2,6.9-22.5,21.1-44.1,36.8c-22.9,16.7-185.5,131.4-409.6,287.8"/>
	
		<linearGradient id="SVGID_00000032641545239275614970000005149779660296429747_" gradientUnits="userSpaceOnUse" x1="684.0294" y1="40.2191" x2="691.6727" y2="40.2191">
		<stop  offset="3.881790e-07" style="stop-color:#FFFFFF"/>
		<stop  offset="0.1547" style="stop-color:#EEEBE9"/>
		<stop  offset="0.462" style="stop-color:#C4BBB3"/>
		<stop  offset="0.889" style="stop-color:#897969"/>
		<stop  offset="1" style="stop-color:#7B6A58"/>
	</linearGradient>
	
		<circle style="fill:url(#SVGID_00000032641545239275614970000005149779660296429747_);stroke:#000000;stroke-width:0.25;stroke-miterlimit:10;" cx="687.9" cy="40.2" r="3.8"/>
	
		<linearGradient id="SVGID_00000032636281535023380620000016033344775432240828_" gradientUnits="userSpaceOnUse" x1="706.9869" y1="66.8511" x2="714.6301" y2="66.8511">
		<stop  offset="3.881790e-07" style="stop-color:#FFFFFF"/>
		<stop  offset="0.1547" style="stop-color:#EEEBE9"/>
		<stop  offset="0.462" style="stop-color:#C4BBB3"/>
		<stop  offset="0.889" style="stop-color:#897969"/>
		<stop  offset="1" style="stop-color:#7B6A58"/>
	</linearGradient>
	
		<circle style="fill:url(#SVGID_00000032636281535023380620000016033344775432240828_);stroke:#000000;stroke-width:0.25;stroke-miterlimit:10;" cx="710.8" cy="66.9" r="3.8"/>
	
		<linearGradient id="SVGID_00000017476005217966951730000005721846344697024142_" gradientUnits="userSpaceOnUse" x1="654.9738" y1="61.8196" x2="662.617" y2="61.8196">
		<stop  offset="3.881790e-07" style="stop-color:#FFFFFF"/>
		<stop  offset="0.1547" style="stop-color:#EEEBE9"/>
		<stop  offset="0.462" style="stop-color:#C4BBB3"/>
		<stop  offset="0.889" style="stop-color:#897969"/>
		<stop  offset="1" style="stop-color:#7B6A58"/>
	</linearGradient>
	
		<circle style="fill:url(#SVGID_00000017476005217966951730000005721846344697024142_);stroke:#000000;stroke-width:0.25;stroke-miterlimit:10;" cx="658.8" cy="61.8" r="3.8"/>
	
		<linearGradient id="SVGID_00000091729863196304017780000006507443356151994504_" gradientUnits="userSpaceOnUse" x1="679.1443" y1="79.8723" x2="686.7876" y2="79.8723">
		<stop  offset="3.881790e-07" style="stop-color:#FFFFFF"/>
		<stop  offset="0.1547" style="stop-color:#EEEBE9"/>
		<stop  offset="0.462" style="stop-color:#C4BBB3"/>
		<stop  offset="0.889" style="stop-color:#897969"/>
		<stop  offset="1" style="stop-color:#7B6A58"/>
	</linearGradient>
	
		<circle style="fill:url(#SVGID_00000091729863196304017780000006507443356151994504_);stroke:#000000;stroke-width:0.25;stroke-miterlimit:10;" cx="683" cy="79.9" r="3.8"/>
	
		<linearGradient id="SVGID_00000103960953545640683090000003820814775551434670_" gradientUnits="userSpaceOnUse" x1="651.7103" y1="95.0717" x2="659.3535" y2="95.0717">
		<stop  offset="3.881790e-07" style="stop-color:#FFFFFF"/>
		<stop  offset="0.1547" style="stop-color:#EEEBE9"/>
		<stop  offset="0.462" style="stop-color:#C4BBB3"/>
		<stop  offset="0.889" style="stop-color:#897969"/>
		<stop  offset="1" style="stop-color:#7B6A58"/>
	</linearGradient>
	
		<circle style="fill:url(#SVGID_00000103960953545640683090000003820814775551434670_);stroke:#000000;stroke-width:0.25;stroke-miterlimit:10;" cx="655.5" cy="95.1" r="3.8"/>
	
		<linearGradient id="SVGID_00000161634110733912357770000015094185141455507599_" gradientUnits="userSpaceOnUse" x1="633.1996" y1="72.5377" x2="640.8429" y2="72.5377">
		<stop  offset="3.881790e-07" style="stop-color:#FFFFFF"/>
		<stop  offset="0.1547" style="stop-color:#EEEBE9"/>
		<stop  offset="0.462" style="stop-color:#C4BBB3"/>
		<stop  offset="0.889" style="stop-color:#897969"/>
		<stop  offset="1" style="stop-color:#7B6A58"/>
	</linearGradient>
	
		<circle style="fill:url(#SVGID_00000161634110733912357770000015094185141455507599_);stroke:#000000;stroke-width:0.25;stroke-miterlimit:10;" cx="637" cy="72.5" r="3.8"/>
	<text transform="matrix(0.7528 -0.4346 0.5 0.866 667.7427 76.1038)" class="st28 st29 st30">REDOGE</text>
	<text transform="matrix(1.0045 -0.6774 0.5591 0.8291 703.5773 65.7034)" class="st31 st29 st32">D-1</text>
	<line class="st10" x1="591.6" y1="103" x2="609.5" y2="125.5"/>
	<line class="st10" x1="572.6" y1="118.9" x2="590.5" y2="141.4"/>
	<line class="st10" x1="552.9" y1="132.1" x2="570.7" y2="154.6"/>
	<line class="st10" x1="535.7" y1="144.5" x2="553.5" y2="166.9"/>
	<line class="st10" x1="518.5" y1="156.1" x2="536.4" y2="178.6"/>
	<line class="st10" x1="501" y1="168" x2="518.8" y2="190.5"/>
	<line class="st10" x1="486.9" y1="177.6" x2="504.8" y2="200.1"/>
	<line class="st10" x1="470.9" y1="185.9" x2="491.2" y2="211.5"/>
	<line class="st10" x1="457.2" y1="196.2" x2="476.7" y2="220.9"/>
	<line class="st10" x1="443.8" y1="204.4" x2="464.5" y2="230.5"/>
	<line class="st10" x1="431.3" y1="214.4" x2="451.2" y2="239.6"/>
	<line class="st10" x1="420.7" y1="222.3" x2="441" y2="247.8"/>
	<line class="st10" x1="408" y1="230.5" x2="428.3" y2="256"/>
	<line class="st10" x1="399.1" y1="237.2" x2="419.2" y2="262.6"/>
	<line class="st10" x1="387.5" y1="244" x2="408" y2="269.9"/>
	<line class="st10" x1="378.8" y1="249.1" x2="400.5" y2="276.5"/>
	<line class="st10" x1="369.8" y1="254.5" x2="392.4" y2="283"/>
	<line class="st10" x1="361.5" y1="260.9" x2="383.4" y2="288.6"/>
	<line class="st10" x1="354.9" y1="266" x2="376.4" y2="293.1"/>
	<line class="st10" x1="346.8" y1="273.4" x2="367.9" y2="300"/>
	<circle class="st10" cx="215.3" cy="373.5" r="1.6"/>
</g>
<g id="Скетч" class="st33">
</g>
</svg>
